<?xml version="1.0" standalone="no"?>
<!DOCTYPE svg PUBLIC "-//W3C//DTD SVG 20010904//EN"
 "http://www.w3.org/TR/2001/REC-SVG-20010904/DTD/svg10.dtd">
<svg version="1.0" xmlns="http://www.w3.org/2000/svg"
 width="700.000000pt" height="700.000000pt" viewBox="0 0 700.000000 700.000000"
 preserveAspectRatio="xMidYMid meet">
<metadata>
Created by potrace 1.11, written by Peter Selinger 2001-2013
</metadata>
<g transform="translate(0.000000,700.000000) scale(0.100000,-0.100000)"
fill="#000000" stroke="none">
<path d="M988 6265 c-126 -25 -227 -104 -285 -223 l-38 -76 0 -2466 0 -2466
38 -76 c55 -113 161 -198 277 -224 19 -4 786 -8 1705 -9 1775 -1 1733 -2 1827
46 91 47 180 157 209 259 9 33 13 168 13 497 l1 452 784 784 c431 431 790 796
798 811 8 15 17 52 20 82 11 106 6 113 -361 482 -182 183 -345 342 -363 353
-38 24 -63 30 -126 30 -83 0 -123 -31 -425 -334 -154 -155 -291 -292 -304
-304 l-23 -22 0 1007 c0 554 -3 1031 -7 1060 -23 150 -136 280 -286 330 -42
13 -236 15 -1724 16 -1152 1 -1694 -2 -1730 -9z m3432 -176 c55 -25 95 -62
123 -114 l22 -40 3 -1120 2 -1121 -405 -404 c-223 -223 -408 -407 -410 -409
-2 -1 -573 -4 -1269 -5 -1251 -1 -1266 -1 -1285 -21 -37 -38 -28 -106 17 -129
22 -11 231 -13 1190 -12 640 0 1166 -2 1168 -5 2 -3 -67 -75 -152 -160 -85
-85 -166 -170 -179 -190 -19 -27 -49 -134 -126 -460 -61 -253 -102 -446 -102
-479 -2 -122 100 -223 223 -222 25 0 110 16 190 35 119 29 311 76 380 92 8 2
48 11 89 19 122 27 233 57 259 70 13 7 112 100 218 206 l194 193 0 -354 c0
-213 -4 -369 -10 -391 -17 -59 -69 -120 -129 -150 l-55 -28 -1680 0 -1681 0
-53 27 c-29 15 -66 43 -81 63 -60 77 -56 -113 -56 2525 l0 2420 24 48 c26 53
67 91 126 118 38 18 116 19 1720 19 1669 0 1680 -1 1725 -21z m1244 -1869
l129 -129 -1025 -1025 -1025 -1025 -146 146 c-81 79 -147 147 -147 150 0 7
1998 2001 2018 2012 34 21 68 -2 196 -129z m378 -378 c90 -90 128 -136 132
-157 5 -29 -44 -80 -1007 -1043 l-1012 -1012 -148 147 -148 147 1023 1023
c563 563 1025 1023 1028 1023 3 0 62 -58 132 -128z m-2047 -2302 c-3 -4 -22
-11 -42 -15 -21 -3 -119 -26 -218 -50 -470 -113 -495 -118 -520 -107 -49 22
-50 10 76 547 23 94 47 193 55 222 l14 51 320 -320 c176 -176 318 -324 315
-328z"/>
<path d="M1244 5412 c-63 -9 -88 -98 -39 -139 l26 -23 1468 0 c1460 0 1467 0
1489 20 12 11 24 31 28 44 7 31 -20 83 -48 92 -21 7 -2877 13 -2924 6z"/>
<path d="M1223 4560 c-23 -9 -49 -53 -48 -80 2 -28 25 -58 52 -67 17 -6 615
-9 1485 -9 l1457 1 21 21 c33 33 35 77 6 110 l-24 29 -1464 2 c-837 1 -1472
-2 -1485 -7z"/>
<path d="M1244 3722 c-33 -5 -67 -47 -67 -84 0 -51 40 -78 116 -79 34 0 693 0
1463 0 1516 -1 1431 -4 1455 53 14 34 -3 83 -35 100 -15 8 -416 12 -1466 12
-795 1 -1455 0 -1466 -2z"/>
</g>
</svg>
