<?xml version="1.0" ?><svg enable-background="new 0 0 128 128" id="Layer_1" version="1.1" viewBox="0 0 128 128" xml:space="preserve" xmlns="http://www.w3.org/2000/svg" xmlns:xlink="http://www.w3.org/1999/xlink"><g id="Pencil_and_Paper"><path d="M22.99,32.025h52.642c0.828,0,1.5-0.671,1.5-1.5s-0.672-1.5-1.5-1.5H22.99c-0.829,0-1.5,0.671-1.5,1.5   S22.162,32.025,22.99,32.025z"/><path d="M22.99,47.479h52.642c0.828,0,1.5-0.671,1.5-1.5s-0.672-1.5-1.5-1.5H22.99c-0.829,0-1.5,0.671-1.5,1.5   S22.162,47.479,22.99,47.479z"/><path d="M22.99,62.932h52.642c0.828,0,1.5-0.672,1.5-1.5s-0.672-1.5-1.5-1.5H22.99c-0.829,0-1.5,0.672-1.5,1.5   S22.162,62.932,22.99,62.932z"/><path d="M114.728,57.774l-11.257-11.256c-0.792-0.792-1.845-1.229-2.966-1.229c-1.12,0-2.173,0.436-2.966,1.229L86.578,57.479   V20.781c0-4.152-3.378-7.53-7.529-7.53H19.573c-4.152,0-7.529,3.378-7.529,7.53v86.439c0,4.151,3.377,7.529,7.529,7.529h59.476   c4.151,0,7.529-3.378,7.529-7.529V91.855l28.149-28.149C116.362,62.071,116.362,59.411,114.728,57.774z M99.66,48.64   c0.452-0.453,1.239-0.451,1.689,0l4.568,4.568L68.416,90.708l-5.412-5.412L99.66,48.64z M61.397,87.931l11.922,11.922   l-13.883,3.281c-0.363,0.042-0.72-0.08-0.981-0.342s-0.386-0.618-0.343-0.983L61.397,87.931z M83.578,107.22   c0,2.497-2.032,4.529-4.529,4.529H19.573c-2.498,0-4.529-2.032-4.529-4.529V20.781c0-2.498,2.032-4.53,4.529-4.53h59.476   c2.497,0,4.529,2.032,4.529,4.53v39.698L68.672,75.386H22.99c-0.829,0-1.5,0.672-1.5,1.5s0.671,1.5,1.5,1.5h42.682l-5.85,5.85   c-0.618,0.617-1.021,1.396-1.168,2.255l-3.479,14.695l-0.022,0.114c-0.208,1.339,0.222,2.656,1.18,3.614   c0.799,0.798,1.847,1.229,2.948,1.229c0.22,0,0.442-0.018,0.664-0.052l14.81-3.5c0.858-0.146,1.637-0.55,2.255-1.168l6.568-6.568   V107.22z M112.606,61.585L75.949,98.242l-5.412-5.413l37.501-37.501l4.567,4.568C113.071,60.361,113.072,61.119,112.606,61.585z"/></g></svg>